<?xml version="1.0" encoding="UTF-8" standalone="no"?>
<!-- Created with Inkscape (http://www.inkscape.org/) -->

<svg
   xmlns:dc="http://purl.org/dc/elements/1.1/"
   xmlns:cc="http://creativecommons.org/ns#"
   xmlns:rdf="http://www.w3.org/1999/02/22-rdf-syntax-ns#"
   xmlns:svg="http://www.w3.org/2000/svg"
   xmlns="http://www.w3.org/2000/svg"
   xmlns:sodipodi="http://sodipodi.sourceforge.net/DTD/sodipodi-0.dtd"
   xmlns:inkscape="http://www.inkscape.org/namespaces/inkscape"
   width="210mm"
   height="297mm"
   viewBox="0 0 210 297"
   version="1.1"
   id="svg38"
   inkscape:version="0.92.2 (5c3e80d, 2017-08-06)"
   sodipodi:docname="char1.svg">
  <defs
     id="defs32" />
  <sodipodi:namedview
     id="base"
     pagecolor="#ffffff"
     bordercolor="#666666"
     borderopacity="1.0"
     inkscape:pageopacity="0.0"
     inkscape:pageshadow="2"
     inkscape:zoom="2"
     inkscape:cx="767.2297"
     inkscape:cy="384.49254"
     inkscape:document-units="mm"
     inkscape:current-layer="layer1"
     showgrid="false"
     inkscape:snap-others="false"
     inkscape:object-nodes="false"
     inkscape:snap-intersection-paths="true"
     inkscape:window-width="2560"
     inkscape:window-height="1411"
     inkscape:window-x="2551"
     inkscape:window-y="-9"
     inkscape:window-maximized="1" />
  <metadata
     id="metadata35">
    <rdf:RDF>
      <cc:Work
         rdf:about="">
        <dc:format>image/svg+xml</dc:format>
        <dc:type
           rdf:resource="http://purl.org/dc/dcmitype/StillImage" />
        <dc:title></dc:title>
      </cc:Work>
    </rdf:RDF>
  </metadata>
  <g
     inkscape:label="Layer 1"
     inkscape:groupmode="layer"
     id="layer1">
    <path
       style="fill:#d7986d;fill-opacity:1;stroke:none;stroke-width:0.25667915"
       d="m 70.311818,164.37084 7.923485,-0.44434 c 0.144509,2.14929 2.167654,6.6138 0,6.44787 l -8.27564,0.18709 c -1.785452,0.007 -0.198829,-4.08869 0.352155,-6.19062 z"
       id="rect1001"
       inkscape:connector-curvature="0"
       sodipodi:nodetypes="ccccc" />
    <path
       style="fill:#d7986d;fill-opacity:1;stroke:none;stroke-width:0.26458332"
       d="m 86.7268,150.48303 c -1.23824,4.43622 -3.297607,7.62555 -5.445302,10.99784 -1.098715,1.72519 -2.855483,4.73265 -3.974287,4.67307 -1.665548,-0.0887 -0.940247,0.0557 -3.609799,0.0312 -3.717833,-0.0341 -4.708686,-0.96196 -7.398092,-4.57452 -2.607905,-3.50312 -4.40952,-6.27364 -5.831749,-11.2612 -3.108039,-10.89946 0.250338,-18.00493 13.229841,-17.97387 11.262663,0.0269 16.218767,6.68098 13.029388,18.1075 z"
       id="path861"
       inkscape:connector-curvature="0"
       sodipodi:nodetypes="ssssssss" />
    <path
       style="fill:#f4e3d7;fill-opacity:1;stroke:none;stroke-width:0.2354864"
       d="m 70.757446,145.01489 c -6e-6,1.63753 -1.213059,2.19411 -3.518681,2.19411 -2.305622,0 -3.69759,-0.67518 -3.697596,-2.31271 -10e-7,-1.63753 1.391969,-2.43132 3.697596,-2.43132 1.098675,0 1.94926,0.20717 2.538717,0.60127 0.647549,0.43293 0.979965,1.09143 0.979964,1.94865 z"
       id="path866"
       inkscape:connector-curvature="0"
       sodipodi:nodetypes="cscssc" />
    <path
       style="fill:#f4e3d7;fill-opacity:1;stroke:none;stroke-width:0.2354864"
       d="m 83.519567,145.04829 c -6e-6,1.63753 -1.213059,2.19411 -3.518681,2.19411 -2.305622,0 -3.69759,-0.67518 -3.697596,-2.31271 -10e-7,-1.63753 1.391969,-2.43132 3.697596,-2.43132 2.305627,0 3.518682,0.91238 3.518681,2.54992 z"
       id="path866-2"
       inkscape:connector-curvature="0"
       sodipodi:nodetypes="cscsc" />
    <path
       style="fill:#ffffff;fill-opacity:1;stroke:none;stroke-width:0.32892969"
       d="m 70.773311,145.28181 c -4e-6,0.51345 -0.295527,1.06097 -0.86547,1.41828 -0.556513,0.34889 -1.377964,0.51368 -2.171015,0.51368 -1.605241,0 -3.319959,-0.7636 -3.319967,-1.77841 -10e-7,-0.51293 0.287525,-1.16808 0.931082,-1.60887 0.629701,-0.43129 1.606808,-0.65383 2.400697,-0.65383 1.605247,0 3.024674,1.09434 3.024673,2.10915 z"
       id="path895"
       inkscape:connector-curvature="0"
       sodipodi:nodetypes="csscssc" />
    <path
       style="fill:#ffffff;fill-opacity:1;stroke:none;stroke-width:0.32892969"
       d="m 76.30213,145.09351 c 3e-6,0.51345 0.378209,1.22633 0.948152,1.58364 0.556513,0.34889 2.063046,0.54912 2.856097,0.54912 1.605241,0 2.634877,-0.79904 2.634885,-1.81385 10e-7,-0.51293 -0.287525,-1.16808 -0.931082,-1.60887 -0.629701,-0.43129 -1.606808,-0.65383 -2.400697,-0.65383 -1.605247,0 -3.107357,0.92898 -3.107355,1.94379 z"
       id="path895-7"
       inkscape:connector-curvature="0"
       sodipodi:nodetypes="csscssc" />
    <ellipse
       style="fill:#000000;fill-opacity:1;stroke:none;stroke-width:0.26458332"
       id="path913"
       cx="68.452248"
       cy="146.15663"
       rx="1.1191912"
       ry="0.85192162" />
    <ellipse
       style="fill:#000000;fill-opacity:1;stroke:none;stroke-width:0.26458332"
       id="path913-6"
       cx="78.825645"
       cy="146.24013"
       rx="1.1191912"
       ry="0.85192162" />
    <path
       style="fill:#483737;fill-opacity:1;stroke:none;stroke-width:0.26458332"
       d="m 75.990309,143.10013 7.93002,-1.61821 -0.165365,1.35186 -7.788278,0.87407 z"
       id="rect930"
       inkscape:connector-curvature="0"
       sodipodi:nodetypes="ccccc" />
    <path
       style="fill:#483737;fill-opacity:1;stroke:none;stroke-width:0.26458332"
       d="m 71.043022,143.02969 -7.93002,-1.61821 0.165365,1.35186 7.788278,0.87407 z"
       id="rect930-4"
       inkscape:connector-curvature="0"
       sodipodi:nodetypes="ccccc" />
    <rect
       style="fill:#ffb380;fill-opacity:1;stroke:none;stroke-width:0.07930585"
       id="rect964"
       width="10.18965"
       height="0.33408692"
       x="68.752922"
       y="158.61804" />
    <path
       style="fill:#483737;fill-opacity:1;stroke:none;stroke-width:0.28115869"
       d="m 62.23823,132.07484 5.742071,-0.98341 5.91757,-0.63001 c 0.879836,-0.16414 3.397458,0.37775 5.55401,0.52427 1.568005,0.10654 3.436986,0.56665 4.635814,1.50974 1.320315,1.03867 1.686092,1.24887 3.006602,2.68642 l 0.187307,2.46702 1.015406,6.35288 c -2.728051,0.15655 -1.87789,-0.87963 -2.816835,-1.31945 l -1.765395,-5.03204 0.338055,3.10894 -1.507276,-2.45753 -0.652055,3.03207 -1.983378,-2.75665 -0.303714,2.97773 -2.338142,-2.70163 -0.47746,2.64632 -2.093391,-2.59172 -1.260121,2.58192 c -0.791817,-0.16688 -1.467137,-0.68325 -1.815871,-2.17938 0.107866,0.99923 -0.319389,1.57036 -0.632392,2.23289 -0.971412,-0.4224 -1.730836,-0.98613 -1.904595,-1.9403 l -1.663862,1.49356 -1.231159,-1.15968 -1.554651,1.11474 -0.491488,-2.255 -1.969685,2.45416 -1.788797,3.10488 -1.538906,-0.16151 -0.950792,-2.23025 1.013364,-6.21462 z"
       id="rect966"
       inkscape:connector-curvature="0"
       sodipodi:nodetypes="cccssccccccccccccccccccccccccccc" />
    <path
       style="fill:#d38d5f;fill-opacity:1;stroke:none;stroke-width:0.26458332"
       d="m 72.256438,149.97249 c 0.931119,-2.51383 1.637962,-1.39287 2.50733,-0.0472 l 0.472845,2.10789 0.531151,2.16604 -1.19292,0.31611 -2.026888,-0.0284 -0.846674,-0.32307 0.331619,-2.09632 z"
       id="rect978"
       inkscape:connector-curvature="0"
       sodipodi:nodetypes="ccccccccc" />
    <path
       style="fill:#dca47f;fill-opacity:1;stroke:none;stroke-width:0.26458332"
       d="m 59.977223,146.52025 c -1e-6,1.20031 0.596445,2.24018 0.126757,2.24018 -0.469688,-1e-5 -1.426745,-0.66402 -1.426746,-1.86433 -2e-6,-1.20032 -0.14543,-2.54087 0.324259,-2.54087 0.46969,0 0.975731,0.9647 0.97573,2.16502 z"
       id="path983"
       inkscape:connector-curvature="0"
       sodipodi:nodetypes="sssss" />
    <path
       style="fill:#dca47f;fill-opacity:1;stroke:none;stroke-width:0.26458332"
       d="m 86.993433,146.57373 c 10e-7,1.20031 -0.596445,2.24018 -0.126757,2.24018 0.469688,-1e-5 1.426745,-0.66402 1.426746,-1.86433 2e-6,-1.20032 0.14543,-2.54087 -0.324259,-2.54087 -0.46969,0 -0.975731,0.9647 -0.97573,2.16502 z"
       id="path983-6"
       inkscape:connector-curvature="0"
       sodipodi:nodetypes="sssss" />
    <path
       id="rect1003"
       style="fill:#d7986d;fill-opacity:1;stroke:none;stroke-width:0.33019698"
       d="m 53.559245,180.56675 -0.246741,-10.25785 16.660006,-1.72809 7.7565,-0.16676 16.045846,1.64561 0.0035,10.39438 -2.891937,5.17419 1.66e-4,-0.002 0.0017,0.004 -2.169351,8.59804 -0.585994,7.5739 0.358991,8.57032 1.333273,9.09618 0.730266,7.11277 -14.835575,-0.0602 c -0.540118,-0.67711 -1.080237,-1.22178 -1.620356,-1.0894 -0.655358,-0.15218 -1.239792,0.40843 -1.814874,1.06307 l -14.937452,-0.028 0.409189,-6.86768 1.427692,-9.61183 0.03355,-9.24218 0.599944,-7.08642 -1.310645,-8.00695 z"
       inkscape:connector-curvature="0"
       sodipodi:nodetypes="cccccccccccccccccccccccc" />
    <path
       style="fill:#d7986d;fill-opacity:1;stroke:none;stroke-width:0.35586751"
       d="m 53.327873,170.32148 3.948701,8.24359 -2.789426,9.0367 c -1.296694,2.95242 -2.88211,6.06444 -3.777158,8.79484 -0.239629,3.75696 -1.016328,11.32657 -1.487119,14.78733 -3.34852,0.0555 -3.629431,0.0671 -6.86046,0.17271 l 0.679201,-16.02225 2.47713,-11.61305 c 1.778216,-6.72228 2.872908,-10.91706 7.809131,-13.39987 z"
       id="rect1024"
       inkscape:connector-curvature="0"
       sodipodi:nodetypes="ccccccccc" />
    <path
       style="fill:#d7986d;fill-opacity:1;stroke:none;stroke-width:0.33172014"
       inkscape:transform-center-y="-1.8459264e-006"
       d="m 47.377582,224.80195 -1.031579,-5.09565 c -0.333748,2.19188 -0.196637,7.30402 -1.185809,4.94644 -0.763906,-1.59493 -1.013509,-2.99367 -1.131362,-4.79666 -0.0109,1.8756 -0.475651,6.37583 -1.24801,4.19186 0,0 -0.851058,-4.79857 -0.496346,-8.03196 0.04983,-0.99752 -0.232663,-4.07242 0.22618,-4.81123 l 3.144598,-0.39308 3.008719,-0.36013 3.288336,3.71038 c 0.182364,2.25594 1.509093,6.69444 0.122304,5.70798 -1.368558,-0.37662 -0.875422,-3.58231 -1.877035,-4.42317 0.01212,3.19416 1.323174,11.16642 -0.844956,9.50442 l -0.583185,-5.19607 c -0.108648,2.09727 -0.143244,7.66206 -1.391855,5.04687 z"
       id="path1032"
       inkscape:connector-curvature="0"
       sodipodi:nodetypes="ccccccccccccccc" />
    <path
       style="fill:#d7986d;fill-opacity:1;stroke:none;stroke-width:0.28465104"
       d="m 57.537239,225.82267 14.797745,0.27939 c -0.755447,7.94035 -3.200617,12.49607 -4.737034,19.81266 -1.640881,7.81405 -2.457718,18.16458 -4.125819,26.56556 -0.419315,2.11178 0.420006,6.73799 -0.02635,8.84533 -0.258716,1.22144 0.535947,2.40834 0.261191,3.62819 l -7.317902,4.03383 c -1.804547,0.076 -3.204692,1.23369 -7.413815,1.0988 -1.645342,-0.0527 -5.239738,-1.1793 -5.224693,-1.41878 0.02273,-0.36182 -1.3592,-0.51765 0.686859,-2.1662 1.420023,-1.14414 3.891427,-1.19109 5.837935,-2.45909 1.510563,-0.98402 3.09381,-1.5692 3.093971,-1.71145 0.02076,-18.37768 1.32776,-37.92865 4.033051,-56.30633 z"
       id="rect1053"
       inkscape:connector-curvature="0"
       sodipodi:nodetypes="ccsssccssssscc" />
    <path
       style="fill:#d7986d;fill-opacity:1;stroke:none;stroke-width:0.35586753"
       d="m 93.753984,170.06133 -3.948702,8.24359 2.789426,9.0367 c 1.296694,2.95242 2.882111,6.06444 3.777159,8.79484 0.239629,3.75696 1.016328,11.32657 1.487119,14.78733 3.348524,0.0555 3.629434,0.0671 6.860464,0.17271 l -0.6792,-16.02225 -2.47713,-11.61305 c -1.778218,-6.72228 -2.872913,-10.91706 -7.809136,-13.39987 z"
       id="rect1024-1"
       inkscape:connector-curvature="0"
       sodipodi:nodetypes="ccccccccc" />
    <path
       style="fill:#d7986d;fill-opacity:1;stroke:none;stroke-width:0.33172014"
       inkscape:transform-center-y="-1.8459264e-006"
       d="m 99.704275,224.5418 1.031585,-5.09565 c 0.33375,2.19188 0.19664,7.30402 1.18581,4.94644 0.76391,-1.59493 1.01351,-2.99367 1.13136,-4.79666 0.0109,1.8756 0.47565,6.37583 1.24801,4.19186 0,0 0.85106,-4.79857 0.49635,-8.03196 -0.0498,-0.99752 0.23266,-4.07242 -0.22618,-4.81123 l -3.1446,-0.39308 -3.008726,-0.36013 -3.288336,3.71038 c -0.182364,2.25594 -1.509094,6.69444 -0.122305,5.70798 1.368559,-0.37662 0.875423,-3.58231 1.877036,-4.42317 -0.01212,3.19416 -1.323174,11.16642 0.844955,9.50442 l 0.583186,-5.19607 c 0.108648,2.09727 0.143244,7.66206 1.391855,5.04687 z"
       id="path1032-6"
       inkscape:connector-curvature="0"
       sodipodi:nodetypes="ccccccccccccccc" />
    <path
       style="fill:#d7986d;fill-opacity:1;stroke:none;stroke-width:0.28465104"
       d="m 90.390821,225.86901 -14.797745,0.27939 c 0.755446,7.94035 3.200617,12.49607 4.737034,19.81266 1.640881,7.81405 2.457718,18.16458 4.125819,26.56555 0.419315,2.11179 -0.420006,6.738 0.02635,8.84534 0.258716,1.22144 -0.535947,2.40834 -0.261191,3.62819 l 7.317902,4.03383 c 1.804547,0.076 3.204692,1.23369 7.413815,1.09879 1.645335,-0.0527 5.239735,-1.17929 5.224685,-1.41877 -0.0227,-0.36182 1.3592,-0.51765 -0.68686,-2.1662 -1.42002,-1.14414 -3.891414,-1.19109 -5.837926,-2.45909 -1.510563,-0.98403 -3.09381,-1.5692 -3.093971,-1.71145 -0.02076,-18.37769 -1.32776,-37.92865 -4.033051,-56.30633 z"
       id="rect1053-5"
       inkscape:connector-curvature="0"
       sodipodi:nodetypes="ccsssccssssscc" />
    <path
       style="fill:#d7986d;fill-opacity:1;stroke:none;stroke-width:0.25667915"
       d="m 174.57089,164.56486 7.92348,-0.44434 c 0.14451,2.14929 2.16765,6.6138 0,6.44787 l -8.27564,0.18709 c -1.78545,0.007 -0.19883,-4.08869 0.35216,-6.19062 z"
       id="rect1001-7"
       inkscape:connector-curvature="0"
       sodipodi:nodetypes="ccccc" />
    <path
       style="fill:#d7986d;fill-opacity:1;stroke:none;stroke-width:0.26458332"
       d="m 190.98587,150.67705 c -1.23824,4.43622 -3.29761,7.62555 -5.4453,10.99784 -1.09872,1.72519 -2.85549,4.73265 -3.97429,4.67307 -1.66555,-0.0887 -0.94025,0.0557 -3.6098,0.0312 -3.71783,-0.0341 -4.70869,-0.96196 -7.39809,-4.57452 -2.60791,-3.50312 -4.40952,-6.27364 -5.83175,-11.2612 -3.10804,-10.89946 0.25034,-18.00493 13.22984,-17.97387 11.26266,0.0269 16.21877,6.68098 13.02939,18.1075 z"
       id="path861-3"
       inkscape:connector-curvature="0"
       sodipodi:nodetypes="ssssssss" />
    <path
       style="fill:#f4e3d7;fill-opacity:1;stroke:none;stroke-width:0.2354864"
       d="m 175.01651,145.20891 c 0,1.63753 -1.21306,2.19411 -3.51868,2.19411 -2.30562,0 -3.69759,-0.67518 -3.69759,-2.31271 -1e-5,-1.63753 1.39196,-2.43132 3.69759,-2.43132 1.09868,0 1.94926,0.20717 2.53872,0.60127 0.64755,0.43293 0.97997,1.09143 0.97996,1.94865 z"
       id="path866-0"
       inkscape:connector-curvature="0"
       sodipodi:nodetypes="cscssc" />
    <path
       style="fill:#f4e3d7;fill-opacity:1;stroke:none;stroke-width:0.2354864"
       d="m 187.77863,145.24231 c 0,1.63753 -1.21305,2.19411 -3.51868,2.19411 -2.30562,0 -3.69759,-0.67518 -3.69759,-2.31271 0,-1.63753 1.39197,-2.43132 3.69759,-2.43132 2.30563,0 3.51869,0.91238 3.51868,2.54992 z"
       id="path866-2-4"
       inkscape:connector-curvature="0"
       sodipodi:nodetypes="cscsc" />
    <path
       style="fill:#ffffff;fill-opacity:1;stroke:none;stroke-width:0.32892969"
       d="m 175.03238,145.47583 c -1e-5,0.51345 -0.29553,1.06097 -0.86547,1.41828 -0.55651,0.34889 -1.37797,0.51368 -2.17102,0.51368 -1.60524,0 -3.31996,-0.7636 -3.31996,-1.77841 -1e-5,-0.51293 0.28752,-1.16808 0.93108,-1.60887 0.6297,-0.43129 1.60681,-0.65383 2.4007,-0.65383 1.60524,0 3.02467,1.09434 3.02467,2.10915 z"
       id="path895-2"
       inkscape:connector-curvature="0"
       sodipodi:nodetypes="csscssc" />
    <path
       style="fill:#ffffff;fill-opacity:1;stroke:none;stroke-width:0.32892969"
       d="m 180.5612,145.28753 c 0,0.51345 0.37821,1.22633 0.94815,1.58364 0.55651,0.34889 2.06304,0.54912 2.8561,0.54912 1.60524,0 2.63487,-0.79904 2.63488,-1.81385 0,-0.51293 -0.28752,-1.16808 -0.93108,-1.60887 -0.6297,-0.43129 -1.60681,-0.65383 -2.4007,-0.65383 -1.60524,0 -3.10736,0.92898 -3.10735,1.94379 z"
       id="path895-7-2"
       inkscape:connector-curvature="0"
       sodipodi:nodetypes="csscssc" />
    <ellipse
       style="fill:#000000;fill-opacity:1;stroke:none;stroke-width:0.26458332"
       id="path913-0"
       cx="172.71132"
       cy="146.35065"
       rx="1.1191912"
       ry="0.85192162" />
    <ellipse
       style="fill:#000000;fill-opacity:1;stroke:none;stroke-width:0.26458332"
       id="path913-6-9"
       cx="183.08472"
       cy="146.43414"
       rx="1.1191912"
       ry="0.85192162" />
    <path
       style="fill:#483737;fill-opacity:1;stroke:none;stroke-width:0.26458332"
       d="m 180.24938,143.29415 7.93002,-1.61821 -0.16537,1.35186 -7.78828,0.87407 z"
       id="rect930-6"
       inkscape:connector-curvature="0"
       sodipodi:nodetypes="ccccc" />
    <path
       style="fill:#483737;fill-opacity:1;stroke:none;stroke-width:0.26458332"
       d="m 175.30209,143.22371 -7.93002,-1.61821 0.16536,1.35186 7.78828,0.87407 z"
       id="rect930-4-5"
       inkscape:connector-curvature="0"
       sodipodi:nodetypes="ccccc" />
    <rect
       style="fill:#ffb380;fill-opacity:1;stroke:none;stroke-width:0.07930585"
       id="rect964-5"
       width="10.18965"
       height="0.33408692"
       x="173.01199"
       y="158.81206" />
    <path
       style="fill:#483737;fill-opacity:1;stroke:none;stroke-width:0.28115869"
       d="m 166.4973,132.26886 5.74207,-0.98341 5.91757,-0.63001 c 0.87983,-0.16414 3.39746,0.37775 5.55401,0.52427 1.568,0.10654 3.43698,0.56665 4.63581,1.50974 1.32032,1.03867 1.68609,1.24887 3.0066,2.68642 l 0.18731,2.46702 1.01541,6.35288 c -2.72805,0.15655 -1.87789,-0.87963 -2.81684,-1.31945 l -1.76539,-5.03204 0.33805,3.10894 -1.50727,-2.45753 -0.65206,3.03207 -1.98338,-2.75665 -0.30371,2.97773 -2.33814,-2.70163 -0.47746,2.64632 -2.09339,-2.59172 -1.26012,2.58192 c -0.79182,-0.16688 -1.46714,-0.68325 -1.81588,-2.17938 0.10787,0.99923 -0.31939,1.57036 -0.63239,2.23289 -0.97141,-0.4224 -1.73083,-0.98613 -1.90459,-1.9403 l -1.66386,1.49356 -1.23116,-1.15968 -1.55466,1.11474 -0.49148,-2.255 -1.96969,2.45416 -1.7888,3.10488 -1.5389,-0.16151 -0.95079,-2.23025 1.01336,-6.21462 z"
       id="rect966-9"
       inkscape:connector-curvature="0"
       sodipodi:nodetypes="cccssccccccccccccccccccccccccccc" />
    <path
       style="fill:#d38d5f;fill-opacity:1;stroke:none;stroke-width:0.26458332"
       d="m 176.5155,150.16651 c 0.93112,-2.51383 1.63797,-1.39287 2.50734,-0.0472 l 0.47284,2.10789 0.53115,2.16604 -1.19292,0.31611 -2.02689,-0.0284 -0.84667,-0.32307 0.33162,-2.09632 z"
       id="rect978-6"
       inkscape:connector-curvature="0"
       sodipodi:nodetypes="ccccccccc" />
    <path
       style="fill:#dca47f;fill-opacity:1;stroke:none;stroke-width:0.26458332"
       d="m 164.23629,146.71427 c 0,1.20031 0.59644,2.24018 0.12676,2.24018 -0.46969,-1e-5 -1.42675,-0.66402 -1.42675,-1.86433 0,-1.20032 -0.14543,-2.54087 0.32426,-2.54087 0.46969,0 0.97573,0.9647 0.97573,2.16502 z"
       id="path983-4"
       inkscape:connector-curvature="0"
       sodipodi:nodetypes="sssss" />
    <path
       style="fill:#dca47f;fill-opacity:1;stroke:none;stroke-width:0.26458332"
       d="m 191.2525,146.76775 c 0,1.20031 -0.59645,2.24018 -0.12676,2.24018 0.46969,-10e-6 1.42675,-0.66402 1.42675,-1.86433 0,-1.20032 0.14543,-2.54087 -0.32426,-2.54087 -0.46969,0 -0.97573,0.9647 -0.97573,2.16502 z"
       id="path983-6-5"
       inkscape:connector-curvature="0"
       sodipodi:nodetypes="sssss" />
    <path
       id="rect1003-2"
       style="fill:#d7986d;fill-opacity:1;stroke:none;stroke-width:0.33019698"
       d="m 157.81831,180.76077 -0.24674,-10.25785 16.66001,-1.72809 7.7565,-0.16676 16.04584,1.64561 0.004,10.39438 -2.89193,5.17419 1.6e-4,-0.002 0.002,0.004 -2.16935,8.59804 -0.58599,7.5739 0.35899,8.57032 1.33327,9.09618 0.73027,7.11277 -14.83558,-0.0602 c -0.54012,-0.67711 -1.08023,-1.22178 -1.62035,-1.0894 -0.65536,-0.15218 -1.2398,0.40843 -1.81488,1.06307 l -14.93745,-0.028 0.40919,-6.86768 1.42769,-9.61183 0.0335,-9.24218 0.59994,-7.08642 -1.31064,-8.00695 z"
       inkscape:connector-curvature="0"
       sodipodi:nodetypes="cccccccccccccccccccccccc" />
    <path
       style="fill:#d7986d;fill-opacity:1;stroke:none;stroke-width:0.35586753"
       d="m 157.58694,170.5155 3.9487,8.24359 -2.78943,9.0367 c -1.29669,2.95242 -2.88211,6.06444 -3.77715,8.79484 -0.23963,3.75696 -1.01633,11.32657 -1.48712,14.78733 -3.34852,0.0555 -3.62943,0.0671 -6.86046,0.17271 l 0.6792,-16.02225 2.47713,-11.61305 c 1.77821,-6.72228 2.87291,-10.91706 7.80913,-13.39987 z"
       id="rect1024-2"
       inkscape:connector-curvature="0"
       sodipodi:nodetypes="ccccccccc" />
    <path
       style="fill:#d7986d;fill-opacity:1;stroke:none;stroke-width:0.33172014"
       inkscape:transform-center-y="-1.8459264e-006"
       d="m 151.63665,224.99597 -1.03158,-5.09565 c -0.33375,2.19188 -0.19664,7.30402 -1.18581,4.94644 -0.76391,-1.59493 -1.01351,-2.99367 -1.13136,-4.79666 -0.0109,1.8756 -0.47565,6.37583 -1.24801,4.19186 0,0 -0.85106,-4.79857 -0.49635,-8.03196 0.0498,-0.99752 -0.23266,-4.07242 0.22618,-4.81123 l 3.1446,-0.39308 3.00872,-0.36013 3.28834,3.71038 c 0.18236,2.25594 1.50909,6.69444 0.1223,5.70798 -1.36856,-0.37662 -0.87542,-3.58231 -1.87704,-4.42317 0.0121,3.19416 1.32318,11.16642 -0.84495,9.50442 l -0.58319,-5.19607 c -0.10864,2.09727 -0.14324,7.66206 -1.39185,5.04687 z"
       id="path1032-1"
       inkscape:connector-curvature="0"
       sodipodi:nodetypes="ccccccccccccccc" />
    <path
       style="fill:#d7986d;fill-opacity:1;stroke:none;stroke-width:0.28465104"
       d="m 161.79631,226.01669 14.79774,0.27939 c -0.75545,7.94035 -3.20062,12.49607 -4.73703,19.81266 -1.64088,7.81405 -2.45772,18.16458 -4.12582,26.56556 -0.41932,2.11178 0.42,6.73799 -0.0264,8.84533 -0.25872,1.22144 0.53594,2.40834 0.26119,3.62819 l -7.3179,4.03383 c -1.80455,0.076 -3.2047,1.23369 -7.41382,1.0988 -1.64534,-0.0527 -5.23974,-1.1793 -5.22469,-1.41878 0.0227,-0.36182 -1.3592,-0.51765 0.68686,-2.1662 1.42002,-1.14414 3.89142,-1.19109 5.83793,-2.45909 1.51057,-0.98402 3.09381,-1.5692 3.09397,-1.71145 0.0208,-18.37768 1.32776,-37.92865 4.03305,-56.30633 z"
       id="rect1053-59"
       inkscape:connector-curvature="0"
       sodipodi:nodetypes="ccsssccssssscc" />
    <path
       style="fill:#d7986d;fill-opacity:1;stroke:none;stroke-width:0.35586753"
       d="m 198.01305,170.25535 -3.9487,8.24359 2.78943,9.0367 c 1.29669,2.95242 2.88211,6.06444 3.77715,8.79484 0.23963,3.75696 1.01633,11.32657 1.48712,14.78733 3.34853,0.0555 3.62944,0.0671 6.86047,0.17271 l -0.6792,-16.02225 -2.47713,-11.61305 c -1.77822,-6.72228 -2.87292,-10.91706 -7.80914,-13.39987 z"
       id="rect1024-1-6"
       inkscape:connector-curvature="0"
       sodipodi:nodetypes="ccccccccc" />
    <path
       style="fill:#d7986d;fill-opacity:1;stroke:none;stroke-width:0.33172014"
       inkscape:transform-center-y="-1.8459264e-006"
       d="m 203.96334,224.73582 1.03159,-5.09565 c 0.33375,2.19188 0.19664,7.30402 1.18581,4.94644 0.76391,-1.59493 1.01351,-2.99367 1.13136,-4.79666 0.0109,1.8756 0.47565,6.37583 1.24801,4.19186 0,0 0.85106,-4.79857 0.49635,-8.03196 -0.0498,-0.99752 0.23266,-4.07242 -0.22618,-4.81123 l -3.1446,-0.39308 -3.00873,-0.36013 -3.28834,3.71038 c -0.18236,2.25594 -1.50909,6.69444 -0.1223,5.70798 1.36856,-0.37662 0.87542,-3.58231 1.87704,-4.42317 -0.0121,3.19416 -1.32318,11.16642 0.84495,9.50442 l 0.58319,-5.19607 c 0.10865,2.09727 0.14324,7.66206 1.39185,5.04687 z"
       id="path1032-6-6"
       inkscape:connector-curvature="0"
       sodipodi:nodetypes="ccccccccccccccc" />
    <path
       style="fill:#d7986d;fill-opacity:1;stroke:none;stroke-width:0.28465104"
       d="m 194.64989,226.06303 -14.79775,0.27939 c 0.75545,7.94035 3.20062,12.49607 4.73704,19.81266 1.64088,7.81405 2.45771,18.16458 4.12582,26.56555 0.41931,2.11179 -0.42001,6.738 0.0264,8.84534 0.25871,1.22144 -0.53595,2.40834 -0.26119,3.62819 l 7.3179,4.03383 c 1.80455,0.076 3.20469,1.23369 7.41381,1.09879 1.64534,-0.0527 5.23974,-1.17929 5.22469,-1.41877 -0.0227,-0.36182 1.3592,-0.51765 -0.68686,-2.1662 -1.42002,-1.14414 -3.89142,-1.19109 -5.83793,-2.45909 -1.51056,-0.98403 -3.09381,-1.5692 -3.09397,-1.71145 -0.0208,-18.37769 -1.32776,-37.92865 -4.03305,-56.30633 z"
       id="rect1053-5-0"
       inkscape:connector-curvature="0"
       sodipodi:nodetypes="ccsssccssssscc" />
  </g>
</svg>
