<?xml version="1.0" encoding="UTF-8" standalone="no"?>
<!-- Created with Inkscape (http://www.inkscape.org/) -->

<svg
   xmlns:dc="http://purl.org/dc/elements/1.1/"
   xmlns:cc="http://creativecommons.org/ns#"
   xmlns:rdf="http://www.w3.org/1999/02/22-rdf-syntax-ns#"
   xmlns:svg="http://www.w3.org/2000/svg"
   xmlns="http://www.w3.org/2000/svg"
   xmlns:sodipodi="http://sodipodi.sourceforge.net/DTD/sodipodi-0.dtd"
   xmlns:inkscape="http://www.inkscape.org/namespaces/inkscape"
   width="793.70081"
   height="1122.5197"
   viewBox="0 0 210 297"
   version="1.1"
   id="svg1236"
   inkscape:version="0.92.2 (5c3e80d, 2017-08-06)"
   sodipodi:docname="icons.svg">
  <defs
     id="defs1230" />
  <sodipodi:namedview
     id="base"
     pagecolor="#ffffff"
     bordercolor="#666666"
     borderopacity="1.0"
     inkscape:pageopacity="0.0"
     inkscape:pageshadow="2"
     inkscape:zoom="11.2"
     inkscape:cx="-408.66547"
     inkscape:cy="1308.891"
     inkscape:document-units="px"
     inkscape:current-layer="layer1"
     showgrid="true"
     showborder="false"
     units="px"
     inkscape:window-width="2560"
     inkscape:window-height="1361"
     inkscape:window-x="2551"
     inkscape:window-y="-9"
     inkscape:window-maximized="1"
     inkscape:snap-nodes="true"
     inkscape:snap-others="false"
     inkscape:object-nodes="false"
     inkscape:snap-grids="false">
    <inkscape:grid
       type="xygrid"
       id="grid1238"
       spacingx="8.4666667"
       spacingy="8.4666667" />
  </sodipodi:namedview>
  <metadata
     id="metadata1233">
    <rdf:RDF>
      <cc:Work
         rdf:about="">
        <dc:format>image/svg+xml</dc:format>
        <dc:type
           rdf:resource="http://purl.org/dc/dcmitype/StillImage" />
        <dc:title></dc:title>
      </cc:Work>
    </rdf:RDF>
  </metadata>
  <g
     inkscape:label="Layer 1"
     inkscape:groupmode="layer"
     id="layer1">
    <path
       style="fill:#d40000;fill-opacity:1;stroke:none;stroke-width:0.99999994"
       d="M -368 -189.48047 A 15.999999 15.999999 0 0 0 -384 -173.48047 A 15.999999 15.999999 0 0 0 -368 -157.48047 A 15.999999 15.999999 0 0 0 -352 -173.48047 A 15.999999 15.999999 0 0 0 -368 -189.48047 z M -367.97656 -188.36523 A 14.997314 14.906249 0 0 1 -352.97852 -173.45898 A 14.997314 14.906249 0 0 1 -367.97656 -158.55273 A 14.997314 14.906249 0 0 1 -382.97266 -173.45898 A 14.997314 14.906249 0 0 1 -367.97656 -188.36523 z "
       transform="scale(0.26458333)"
       id="path22"
       inkscape:export-filename="D:\godotsteam\srgame\art\interface\target_cursor.png"
       inkscape:export-xdpi="96"
       inkscape:export-ydpi="96" />
    <path
       style="fill:#d40000;fill-opacity:1;stroke:none;stroke-width:0.75975668"
       d="M -367.96875 -185.4707 A 12.275061 12.038307 0 0 0 -380.24414 -173.43359 A 12.275061 12.038307 0 0 0 -367.96875 -161.39453 A 12.275061 12.038307 0 0 0 -355.69336 -173.43359 A 12.275061 12.038307 0 0 0 -367.96875 -185.4707 z M -367.88867 -184.36719 A 10.96502 10.886102 0 0 1 -356.92383 -173.48047 A 10.96502 10.886102 0 0 1 -367.88867 -162.59375 A 10.96502 10.886102 0 0 1 -378.85547 -173.48047 A 10.96502 10.886102 0 0 1 -367.88867 -184.36719 z "
       transform="scale(0.26458333)"
       id="path27"
       inkscape:export-filename="D:\godotsteam\srgame\art\interface\target_cursor.png"
       inkscape:export-xdpi="96"
       inkscape:export-ydpi="96" />
    <rect
       style="fill:#d40000;fill-opacity:1;stroke:none;stroke-width:0.26458332"
       id="rect41"
       width="0.25056517"
       height="8.0849028"
       x="-97.453148"
       y="-49.899151"
       inkscape:export-filename="D:\godotsteam\srgame\art\interface\target_cursor.png"
       inkscape:export-xdpi="96"
       inkscape:export-ydpi="96" />
    <rect
       style="fill:#d40000;fill-opacity:1;stroke:none;stroke-width:0.26458332"
       id="rect41-7"
       width="0.25056517"
       height="8.0849028"
       x="-46.090561"
       y="93.260368"
       transform="rotate(90)"
       inkscape:export-filename="D:\godotsteam\srgame\art\interface\target_cursor.png"
       inkscape:export-xdpi="96"
       inkscape:export-ydpi="96" />
    <path
       style="fill:#000000;fill-opacity:1;stroke:none;stroke-width:0.46541086"
       d="m -104.65614,-46.422078 -5.37589,-3.683269 1.71583,5.751331 2.43556,0.01918 2.74414,2.686279 1.5633,0.0035 -2.62077,-2.690584 2.29593,0.0039 z"
       id="rect58"
       inkscape:connector-curvature="0"
       sodipodi:nodetypes="ccccccccc"
       inkscape:export-filename="D:\godotsteam\srgame\art\interface\default_cursor.png"
       inkscape:export-xdpi="96"
       inkscape:export-ydpi="96" />
  </g>
</svg>
